Coordinates
version=1
nRows=26
nColumns=24
inDegrees=yes

Units are S.I. units (second, meters, Newtons, ...)
Angles are in degrees.

endheader
time	pelvis_tilt	pelvis_list	pelvis_rotation	pelvis_tx	pelvis_ty	pelvis_tz	hip_flexion_r	hip_adduction_r	hip_rotation_r	knee_angle_r	ankle_angle_r	subtalar_angle_r	mtp_angle_r	hip_flexion_l	hip_adduction_l	hip_rotation_l	knee_angle_l	ankle_angle_l	subtalar_angle_l	mtp_angle_l	lumbar_extension	lumbar_bending	lumbar_rotation
      0.00000000	     -3.07407591	      1.50878720	      4.45310710	      0.15985126	      0.97409399	     -0.01619769	     28.80092477	     -7.78597551	    -12.52259332	    -51.18171369	     10.98065384	      5.61265344	      0.00000000	      4.77719847	      4.27696217	    -11.53368501	    -11.56205724	     17.10620388	     22.57677439	      0.00000000	     -0.61752916	     -1.16372514	      0.18376071
      0.00833333	     -3.16289104	      1.54304297	      4.85220743	      0.17006339	      0.97338934	     -0.01724783	     29.61353290	     -7.75314294	    -12.63790187	    -49.56524734	     11.62066573	      6.72191485	      0.00000000	      3.96347091	      4.35733959	    -11.42606680	    -11.14391085	     17.52838275	     22.93300431	      0.00000000	     -0.59888295	     -1.11170471	      0.17558811
      0.01666667	     -3.24050560	      1.59308373	      5.28789800	      0.18026216	      0.97255206	     -0.01830024	     30.33852730	     -7.74339654	    -12.75251371	    -47.83653254	     12.09903683	      7.63762117	      0.00000000	      3.14566761	      4.44618191	    -11.22598435	    -10.74540654	     17.96327572	     23.28738107	      0.00000000	     -0.66148529	     -1.06977781	      0.16904779
      0.02500000	     -3.29665057	      1.68678704	      5.64638046	      0.19051432	      0.97155448	     -0.01924853	     30.99368348	     -7.74430944	    -12.78283109	    -46.03009610	     12.49514107	      8.48906833	      0.00000000	      2.29278403	      4.56498839	    -11.12131680	    -10.34369068	     18.43560492	     23.63063475	      0.00000000	     -0.68797463	     -1.12589760	      0.17787738
      0.03333333	     -3.38248730	      1.79060634	      5.98195186	      0.20074339	      0.97034162	     -0.02012267	     31.62785005	     -7.73460207	    -12.76633070	    -44.13249173	     12.74821306	      9.04294776	      0.00000000	      1.49536853	      4.68639159	    -11.00244054	     -9.99041718	     18.93075985	     23.90188952	      0.00000000	     -0.72030073	     -1.19734608	      0.18911729
      0.04166667	     -3.48931996	      1.91082416	      6.28417698	      0.21098600	      0.96892099	     -0.02091847	     32.23607104	     -7.72261328	    -12.71290585	    -42.15513108	     12.92354765	      9.37320515	      0.00000000	      0.73810710	      4.81877052	    -10.86444287	     -9.67864081	     19.44352895	     24.09422514	      0.00000000	     -0.74463731	     -1.29958691	      0.20518679
      0.05000000	     -3.61051154	      2.04418756	      6.55643012	      0.22125978	      0.96731444	     -0.02163434	     32.81130177	     -7.70609236	    -12.62777575	    -40.10600427	     13.05976372	      9.59081160	      0.00000000	      0.01698322	      4.95779877	    -10.70804880	     -9.41279003	     19.95681695	     24.22308611	      0.00000000	     -0.76844828	     -1.42064603	      0.22421056
      0.05833333	     -3.74917095	      2.19668459	      6.79566968	      0.23158826	      0.96552748	     -0.02230172	     33.36004148	     -7.69460682	    -12.51424734	    -38.00106269	     13.15292112	      9.74492070	      0.00000000	     -0.67074386	      5.11689043	    -10.53801069	     -9.18252726	     20.45527754	     24.25966436	      0.00000000	     -0.75973445	     -1.57965285	      0.24917864
      0.06666667	     -3.87398734	      2.34921688	      7.02780661	      0.24196845	      0.96362462	     -0.02291788	     33.83788255	     -7.67741036	    -12.40365025	    -35.84514733	     13.22921795	      9.94568076	      0.00000000	     -1.34999105	      5.26933765	    -10.32923421	     -8.99800538	     20.95686459	     24.27042318	      0.00000000	     -0.81459346	     -1.71437111	      0.27035775
      0.07500000	     -3.94567416	      2.50782548	      7.24369725	      0.25243001	      0.96166727	     -0.02348776	     34.20164523	     -7.65434649	    -12.28814665	    -33.65739074	     13.28827289	     10.28484908	      0.00000000	     -2.06476986	      5.42074949	    -10.09161565	     -8.85892844	     21.43737873	     24.19800319	      0.00000000	     -0.95272560	     -1.81328482	      0.28593642
      0.08333333	     -3.99424412	      2.68011965	      7.41986107	      0.26299145	      0.95961784	     -0.02401139	     34.49835799	     -7.63087616	    -12.15760988	    -31.47705018	     13.30509277	     10.78231390	      0.00000000	     -2.80443907	      5.59271846	     -9.84021666	     -8.72620670	     21.88589536	     23.97441682	      0.00000000	     -1.10175378	     -1.93353865	      0.30486002
      0.09166667	     -4.03877674	      2.88823509	      7.56222919	      0.27363219	      0.95745249	     -0.02453305	     34.76389915	     -7.64435250	    -12.01899875	    -29.35665983	     13.31617084	     11.54518827	      0.00000000	     -3.55651821	      5.82297502	     -9.49396397	     -8.58774919	     22.23385062	     23.42956450	      0.00000000	     -1.22433427	     -2.12275067	      0.33459533
      0.10000000	     -4.04588320	      3.01890893	      7.68977289	      0.28439795	      0.95524633	     -0.02493590	     34.93034818	     -7.54825679	    -11.86162679	    -27.23006703	     13.15062997	     12.08969814	      0.00000000	     -4.30627724	      5.94181799	     -9.27500272	     -8.53243047	     22.69861071	     23.13704758	      0.00000000	     -1.41623823	     -2.15811088	      0.34017692
      0.10833333	     -4.02488374	      3.14942539	      7.78520968	      0.29527015	      0.95296666	     -0.02532169	     35.04422163	     -7.45054870	    -11.70818269	    -25.19643011	     13.00983362	     12.81131470	      0.00000000	     -5.08214015	      6.06009704	     -9.04498203	     -8.49635919	     23.10442454	     22.72470203	      0.00000000	     -1.63847338	     -2.21252695	      0.34874898
      0.11666667	     -4.04255788	      3.29586410	      7.87027625	      0.30620612	      0.95053800	     -0.02575204	     35.19448676	     -7.39478012	    -11.58780508	    -23.30059744	     12.91861545	     13.68790766	      0.00000000	     -5.81216657	      6.20707913	     -8.73002787	     -8.48209969	     23.43017778	     22.13009291	      0.00000000	     -1.78902949	     -2.33538457	      0.36805378
      0.12500000	     -4.08982895	      3.33428748	      7.94850463	      0.31724228	      0.94800937	     -0.02607354	     35.33692100	     -7.20752364	    -11.41720184	    -21.45075737	     12.70487139	     14.14848853	      0.00000000	     -6.43750794	      6.20403642	     -8.64721522	     -8.59984865	     23.87391577	     21.89356437	      0.00000000	     -1.90727939	     -2.26594949	      0.35716150
      0.13333333	     -4.16023905	      3.37719235	      8.01652166	      0.32833144	      0.94536812	     -0.02641910	     35.50592670	     -7.04171748	    -11.26682976	    -19.75267592	     12.53626179	     14.53342579	      0.00000000	     -7.00694489	      6.20126125	     -8.63567663	     -8.78685715	     24.32160408	     21.69000490	      0.00000000	     -1.97522072	     -2.24100458	      0.35325227
      0.14166667	     -4.25909577	      3.37220367	      8.08469654	      0.33950954	      0.94264348	     -0.02675888	     35.69307340	     -6.84709373	    -11.16532404	    -18.18677561	     12.45383115	     14.80402971	      0.00000000	     -7.51000966	      6.14445326	     -8.70339480	     -9.03691621	     24.73525222	     21.49828342	      0.00000000	     -2.05001133	     -2.15165968	      0.33923265
      0.15000000	     -4.37506419	      3.32430773	      8.15601574	      0.35077661	      0.93986349	     -0.02709250	     35.89265340	     -6.62830773	    -11.11136114	    -16.76822268	     12.42197130	     14.86485581	      0.00000000	     -7.95920058	      6.04092987	     -8.87863768	     -9.34979701	     25.11247280	     21.34087644	      0.00000000	     -2.13725527	     -1.98591886	      0.31322341
      0.15833333	     -4.50346074	      3.26528568	      8.21838937	      0.36211912	      0.93703323	     -0.02737644	     36.10470983	     -6.38769447	    -10.98426595	    -15.49194203	     12.27109760	     14.35912429	      0.00000000	     -8.35895566	      5.92419182	     -9.21049389	     -9.73883571	     25.55097833	     21.28895326	      0.00000000	     -2.18590427	     -1.84735789	      0.29147919
      0.16666667	     -4.66604094	      3.19163829	      8.28983759	      0.37354331	      0.93415544	     -0.02769215	     36.36730797	     -6.17184879	    -10.92945533	    -14.41665137	     12.17614637	     13.76418233	      0.00000000	     -8.70552052	      5.81506572	     -9.52880330	    -10.16279246	     25.89319347	     21.01932419	      0.00000000	     -2.18606687	     -1.66250731	      0.26245295
      0.17500000	     -4.83072861	      3.10417481	      8.36220393	      0.38504790	      0.93128800	     -0.02800914	     36.64209366	     -5.95736435	    -10.84973299	    -13.52478445	     12.03701687	     12.89677701	      0.00000000	     -9.04444842	      5.70898842	     -9.80953130	    -10.60215376	     26.16208614	     20.58346170	      0.00000000	     -2.21829782	     -1.45413561	      0.22974811
      0.18333333	     -4.99253829	      2.99767353	      8.44371840	      0.39663124	      0.92845809	     -0.02831972	     36.92744612	     -5.74920141	    -10.77387973	    -12.82726853	     11.86308604	     11.86413462	      0.00000000	     -9.37811074	      5.59003375	    -10.00545155	    -11.06469555	     26.35749639	     20.00031082	      0.00000000	     -2.26502923	     -1.21675002	      0.19249742
      0.19166667	     -5.15529100	      2.86396169	      8.54021858	      0.40827993	      0.92568099	     -0.02862755	     37.22479656	     -5.54097779	    -10.67631366	    -12.31650032	     11.64222762	     10.70580735	      0.00000000	     -9.69835466	      5.43819104	    -10.09545851	    -11.55551076	     26.48271458	     19.32154644	      0.00000000	     -2.32955905	     -0.94308702	      0.14956538
      0.20000000	     -5.30961029	      2.70568251	      8.65900246	      0.42000629	      0.92298377	     -0.02891019	     37.53139328	     -5.34285297	    -10.61128496	    -12.01789913	     11.42322505	      9.55820439	      0.00000000	    -10.00386596	      5.23189619	    -10.10487371	    -12.09909709	     26.53728358	     18.67230932	      0.00000000	     -2.40544987	     -0.62355670	      0.09944543
      0.20833333	     -5.47051449	      2.52488945	      8.78109470	      0.43180585	      0.92034465	     -0.02910790	     37.85652577	     -5.13234633	    -10.47107401	    -11.91890914	     11.17835538	      8.42898778	      0.00000000	    -10.26441230	      4.96227824	    -10.05844242	    -12.72129826	     26.57357392	     18.12423220	      0.00000000	     -2.50673154	     -0.29925477	      0.04861125
